Coordinates
version=1
nRows=24
nColumns=34
inDegrees=no

Units are S.I. units (second, meters, Newtons, ...)
If the header above contains a line with 'inDegrees', this indicates whether rotational values are in degrees (yes) or radians (no).

endheader
time	pelvis_tilt	pelvis_list	pelvis_rotation	pelvis_tx	pelvis_ty	pelvis_tz	hip_flexion_r	hip_adduction_r	hip_rotation_r	knee_angle_r	ankle_angle_r	subtalar_angle_r	mtp_angle_r	hip_flexion_l	hip_adduction_l	hip_rotation_l	knee_angle_l	ankle_angle_l	subtalar_angle_l	mtp_angle_l	lumbar_extension	lumbar_bending	lumbar_rotation	arm_flex_r	arm_add_r	arm_rot_r	elbow_flex_r	pro_sup_r	arm_flex_l	arm_add_l	arm_rot_l	elbow_flex_l	pro_sup_l
0	0.0270622	-0.000128427	0.0298375	-0.247277	0.906135	-0.221502	0.476012	-0.0207411	-0.232773	0.115407	0.302231	0.231367	-0.0160417	-0.3666	0.0197468	-0.0813434	0.169971	0.342963	0.0433848	-0.0189668	-0.256008	0.0172072	-0.120207	-0.0410045	-0.165371	-0.0512734	0.651102	1.91131	0.0515039	-0.206498	0.0938233	0.669991	1.79283
0.01	0.0234758	-0.0041897	0.0340692	-0.230218	0.910425	-0.221101	0.485873	-0.0208551	-0.235349	0.143982	0.259748	0.192642	-0.0160453	-0.365185	0.0106886	-0.0893078	0.197239	0.348884	0.0527168	-0.0189529	-0.244251	0.0297924	-0.114021	-0.0522273	-0.163005	-0.0682871	0.648741	1.90897	0.0515554	-0.202079	0.102364	0.656839	1.79276
0.02	0.019738	-0.00920545	0.0371616	-0.213279	0.914	-0.220575	0.495924	-0.0193669	-0.236072	0.17406	0.221039	0.155398	-0.0160488	-0.3605	0.000654837	-0.096542	0.228895	0.344691	0.054583	-0.0189389	-0.232295	0.0430933	-0.108036	-0.0620994	-0.161294	-0.0828872	0.645369	1.90725	0.0501134	-0.197049	0.10746	0.644489	1.79269
0.03	0.0158771	-0.0151941	0.0391209	-0.196474	0.916933	-0.219917	0.506108	-0.0162522	-0.234977	0.205591	0.186196	0.119686	-0.0160524	-0.352509	-0.0103972	-0.103111	0.265027	0.330371	0.0490372	-0.018925	-0.220186	0.0571261	-0.102228	-0.070616	-0.160237	-0.0951059	0.641	1.90613	0.0472232	-0.191402	0.109134	0.632925	1.79265
0.04	0.0119775	-0.022199	0.0399643	-0.179828	0.919308	-0.219123	0.516242	-0.011442	-0.232142	0.238395	0.155461	0.0856142	-0.0160559	-0.341147	-0.0225786	-0.109183	0.305824	0.305918	0.0362659	-0.0189111	-0.208059	0.0719293	-0.0965426	-0.0777601	-0.159838	-0.105028	0.635675	1.90563	0.0430044	-0.185124	0.107438	0.622112	1.79265
0.05	0.00819458	-0.0302825	0.0397247	-0.16337	0.921222	-0.218189	0.525955	-0.00482087	-0.227697	0.272075	0.129219	0.053343	-0.0160595	-0.326374	-0.0360652	-0.115007	0.351497	0.271415	0.0166531	-0.0188972	-0.196164	0.0875528	-0.0909011	-0.0834968	-0.160101	-0.112791	0.629471	1.90574	0.0376521	-0.178197	0.102448	0.612009	1.79274
0.06	0.00474686	-0.0395061	0.0384575	-0.147134	0.92278	-0.21711	0.534689	0.0037499	-0.221831	0.305974	0.107912	0.0230595	-0.016063	-0.308228	-0.0510624	-0.120845	0.402143	0.22719	-0.00917675	-0.0188832	-0.184849	0.104033	-0.0852269	-0.0877752	-0.161021	-0.11857	0.622507	1.90649	0.0314185	-0.17061	0.0942657	0.60258	1.79301
0.07	0.00188466	-0.0498999	0.0362482	-0.131154	0.924088	-0.215887	0.54174	0.0143837	-0.21481	0.339199	0.091912	-0.00502033	-0.0160666	-0.286869	-0.0677443	-0.126888	0.45762	0.174027	-0.040343	-0.0188693	-0.174518	0.121357	-0.0794674	-0.0905395	-0.162579	-0.122559	0.614947	1.90789	0.0245848	-0.162377	0.083034	0.593808	1.79355
0.08	-0.00015333	-0.0614243	0.0332157	-0.115463	0.92525	-0.214523	0.546358	0.0271027	-0.206984	0.370693	0.0814052	-0.0306354	-0.0160701	-0.262591	-0.0861739	-0.133177	0.517446	0.11337	-0.0757259	-0.0188554	-0.165561	0.139416	-0.0736098	-0.0917485	-0.164725	-0.124957	0.606999	1.90993	0.0174342	-0.153555	0.0689662	0.585696	1.79442
0.09	-0.00118406	-0.0739305	0.0295117	-0.100085	0.926358	-0.213027	0.547854	0.0417704	-0.198777	0.399367	0.076322	-0.0534603	-0.0160737	-0.235803	-0.106222	-0.139556	0.580764	0.0474526	-0.114017	-0.0188414	-0.158292	0.15797	-0.0676847	-0.0913975	-0.167375	-0.125957	0.59891	1.91258	0.0102309	-0.144259	0.0523853	0.578256	1.7957
0.1	-0.00111443	-0.0871336	0.0253149	-0.0850369	0.927489	-0.211416	0.54571	0.0580433	-0.190656	0.424248	0.0763257	-0.0731024	-0.0160773	-0.206989	-0.127509	-0.145667	0.646372	-0.0206976	-0.153796	-0.0188275	-0.152895	0.176626	-0.0617596	-0.0895391	-0.170405	-0.125744	0.590959	1.91576	0.00320864	-0.134668	0.0337576	0.571502	1.79738
0.11	4.20183e-05	-0.100611	0.0208201	-0.0703289	0.928699	-0.209712	0.539657	0.0753593	-0.183084	0.444609	0.0808573	-0.0891293	-0.0160808	-0.176649	-0.149387	-0.151007	0.712819	-0.0874237	-0.193618	-0.0188135	-0.149401	0.194841	-0.0559258	-0.0862961	-0.173658	-0.124503	0.583444	1.91933	-0.00343544	-0.12502	0.0137093	0.565427	1.7994
0.12	0.00217029	-0.113832	0.0162263	-0.0559623	0.930026	-0.207941	0.529705	0.092972	-0.176472	0.460058	0.0892101	-0.101126	-0.0160844	-0.145244	-0.170986	-0.155018	0.778543	-0.148773	-0.232103	-0.0187996	-0.147681	0.211962	-0.0502832	-0.0818635	-0.176954	-0.122415	0.576664	1.92313	-0.00954123	-0.115596	-0.00698432	0.560003	1.80161
0.13	0.00507361	-0.126214	0.0117236	-0.0419311	0.931489	-0.206129	0.516141	0.110031	-0.171134	0.470562	0.100611	-0.108767	-0.0160879	-0.113147	-0.191308	-0.157203	0.842012	-0.200955	-0.268017	-0.0187856	-0.147475	0.227298	-0.0449253	-0.076499	-0.180111	-0.11966	0.570898	1.92693	-0.014986	-0.106697	-0.0274411	0.555176	1.80382
0.14	0.00850045	-0.137192	0.00747999	-0.0282254	0.933092	-0.204302	0.499464	0.125691	-0.167266	0.476411	0.114285	-0.111891	-0.0160915	-0.0806235	-0.209366	-0.157216	0.90185	-0.240842	-0.300329	-0.0187717	-0.148425	0.240204	-0.0399289	-0.0705031	-0.182965	-0.116406	0.566386	1.93053	-0.0196855	-0.0986144	-0.0467449	0.550869	1.80578
0.15	0.0121763	-0.146298	0.00362722	-0.0148337	0.934829	-0.202483	0.480311	0.139222	-0.164934	0.478127	0.1295	-0.110543	-0.0160951	-0.0478407	-0.224313	-0.154942	0.956923	-0.266393	-0.328246	-0.0187578	-0.150129	0.250168	-0.0353465	-0.064192	-0.185385	-0.112797	0.563304	1.93373	-0.0235958	-0.0916004	-0.0640383	0.547	1.80723
0.16	0.0158353	-0.153215	0.000249713	-0.00174311	0.936685	-0.200689	0.459361	0.15011	-0.164085	0.476349	0.145591	-0.104994	-0.0160986	-0.0148932	-0.235562	-0.150506	1.00637	-0.276911	-0.351229	-0.0187438	-0.152185	0.256876	-0.0312018	-0.0578662	-0.187296	-0.108934	0.561757	1.93639	-0.0267156	-0.0858377	-0.0786229	0.543497	1.80797
0.17	0.0192461	-0.15781	-0.00262521	0.0110633	0.938638	-0.198932	0.437245	0.158108	-0.164555	0.471718	0.161967	-0.0957179	-0.0161022	0.0181516	-0.242843	-0.144257	1.04961	-0.273068	-0.368976	-0.0187299	-0.154242	0.260247	-0.027488	-0.0517827	-0.188679	-0.10486	0.561772	1.93843	-0.0290858	-0.0814206	-0.0900486	0.540314	1.80788
0.18	0.0222328	-0.160138	-0.00503279	0.0236066	0.940669	-0.197217	0.41448	0.163254	-0.166089	0.464787	0.178122	-0.0833374	-0.0161057	0.0512109	-0.246213	-0.136709	1.08628	-0.256699	-0.381404	-0.0187159	-0.15603	0.260423	-0.0241673	-0.0461319	-0.189576	-0.100552	0.563314	1.93983	-0.0307843	-0.078345	-0.0981745	0.53744	1.80694
0.19	0.0246869	-0.160413	-0.00706886	0.0359101	0.942761	-0.195544	0.39143	0.16583	-0.168362	0.455966	0.193634	-0.0685562	-0.0161093	0.0841562	-0.246016	-0.128464	1.11623	-0.230424	-0.388619	-0.0187019	-0.157383	0.257731	-0.0211747	-0.0410237	-0.190076	-0.0959217	0.566301	1.94065	-0.0319177	-0.07651	-0.103192	0.534906	1.80526
0.2	0.0265693	-0.158966	-0.00887864	0.0479992	0.944897	-0.193907	0.368293	0.166305	-0.171014	0.445506	0.208175	-0.0520797	-0.0161129	0.116801	-0.242805	-0.120136	1.13944	-0.197204	-0.390889	-0.018688	-0.158237	0.25263	-0.0184268	-0.0364835	-0.190303	-0.0908327	0.570624	1.94094	-0.0326084	-0.075732	-0.105604	0.532776	1.80308
0.21	0.0279015	-0.15619	-0.0106364	0.0599007	0.947058	-0.192297	0.345126	0.16524	-0.173682	0.433519	0.221517	-0.0345446	-0.0161164	0.148908	-0.23725	-0.112271	1.15598	-0.15993	-0.388619	-0.018674	-0.158624	0.245637	-0.0158349	-0.0324568	-0.190399	-0.0851218	0.576171	1.94078	-0.0329801	-0.0757686	-0.106155	0.531134	1.80068
0.22	0.0287489	-0.152491	-0.0125189	0.0716383	0.949226	-0.190704	0.321886	0.163213	-0.17605	0.420021	0.233529	-0.0164658	-0.01612	0.180211	-0.230056	-0.1053	1.16601	-0.121114	-0.382332	-0.0186601	-0.158642	0.23727	-0.0133211	-0.0288213	-0.190496	-0.0786293	0.582827	1.94021	-0.033145	-0.0763504	-0.105731	0.530059	1.79844
0.23	0.0292005	-0.148241	-0.0146774	0.0832306	0.951379	-0.189117	0.298477	0.160741	-0.177877	0.404988	0.244177	0.00178962	-0.0161235	0.210446	-0.221891	-0.0995063	1.16967	-0.0827358	-0.372651	-0.0186461	-0.158427	0.227998	-0.0108341	-0.0254051	-0.190709	-0.0712258	0.590478	1.93925	-0.0331914	-0.0772145	-0.10524	0.529609	1.79668
